<svg width="53.00000000000001" height="53.00000000000001" xmlns="http://www.w3.org/2000/svg">
 <style type="text/css">.st0{fill:#FFFFFF;}</style>

 <g>
  <title>background</title>
  <rect fill="none" id="canvas_background" height="10.83333" width="10.83333" y="-1" x="-1"/>
 </g>
 <g>
  <title>Layer 1</title>
  <g stroke="null" id="svg_3">
   <path stroke="null" id="svg_1" d="m42.76669,28.53334l-4.3,-8.7c-0.8,-1.5 -1.7,-2.4 -3.4,-2.4c-1.7,0 -2.7,0.9 -3.4,2.4l-1.3,2.7l-0.6,1.2l-1.9,4l-0.5,0.8l-1.7,3.5l-0.2,0.5l-0.6,1.2l-0.3,0.6c-1.4,2.9 -3.3,4.8 -7.1,4.8s-5.7,-1.9 -7.1,-4.8l-7.5,-15.3c-0.7,2.4 -1.2,4.9 -1.2,7.5c0,13.6 11,24.7 24.7,24.7c9.3,0 17.3,-5.1 21.6,-12.7l-3.2,-6.5l-2,-3.5l0,0z" class="st0"/>
   <path stroke="null" id="svg_2" d="m26.36669,1.83334c-9.2,0 -17.2,5.1 -21.5,12.5l9.4,19c0.7,1.4 1.5,2.1 3.2,2.1c1.6,0 2.5,-0.7 3.2,-2.1l5.4,-10.8l0,0l1.8,-3.5c1.5,-3.2 3.4,-5.2 7.2,-5.2c3.8,0 5.7,1.9 7.3,5.1l7.5,15c0.8,-2.4 1.2,-4.9 1.2,-7.5c0,-13.5 -11.1,-24.6 -24.7,-24.6l0,0z" class="st0"/>
  </g>
 </g>
</svg>